<?xml version="1.0" encoding="utf-8"?>
<!-- Uploaded to: SVG Repo, www.svgrepo.com, Generator: SVG Repo Mixer Tools -->
<svg width="800px" height="800px" viewBox="0 0 1024 1024" class="icon"  version="1.1" xmlns="http://www.w3.org/2000/svg"><path d="M543.74 255c210.2-42.94 322.79 28.73 346.37 214C904.38 652.15 874 930.76 563 930.76q-35.73-0.9-108.27 0C178.08 903 132.15 652.15 146.43 469 170 283.73 282.6 212.06 492.8 255c5.86 1.49 15.78 1.55 20.37 0 14.83 1.54 24.71 1.48 30.57 0z" fill="#FFFFFF" /><path d="M885.45 439.64q2.73 14.16 4.66 29.34C904.38 652.15 874 930.76 563 930.76q-35.73-0.9-108.27 0c-88.34-8.86-153.15-40.47-200-85.36-20.43-72.24-23.51-150.22-18.17-218.74 23.58-185.26 136.17-256.93 346.37-214 5.86 1.49 15.78 1.55 20.37 0 14.78 1.55 24.7 1.49 30.56 0 110.33-22.54 193.77-13.5 251.57 27z" fill="#FFC6C6" /><path d="M687.43 244.66c118.81 12.08 185.2 87 202.68 224.32C904.38 652.15 874 930.76 563 930.76q-35.73-0.9-108.27 0c-58-5.82-105.92-21.46-145.22-44.24 223.8 24.26 333.76-44.77 395.87-262.59 32.82-115.12 28.75-256-18-379.27z" fill="#FF9368" /><path d="M405.59 339.46a135.21 61.95 0 1 0 270.42 0 135.21 61.95 0 1 0-270.42 0Z" fill="#FFC6C6" /><path d="M453.84 951.26l-1.15-0.12c-68.87-6.91-128.3-27.68-176.65-61.74C233 859 198.34 818 173.14 767.27c-50.37-101.34-53.43-219-47.13-299.87l0.1-1c5.83-45.76 17.1-85.6 33.52-118.42 17-33.9 39.88-61.34 68.11-81.56 31.69-22.69 70.78-36.75 116.17-41.8 44.05-4.9 95.52-1.43 153 10.31l0.93 0.21a31.48 31.48 0 0 0 9.21 0.31l3.82-1.29 4.45 0.47c17.13 1.79 22.49 0.75 23.4 0.52l0.93-0.21c57.46-11.74 108.94-15.21 153-10.31 45.39 5 84.47 19.11 116.17 41.8 28.18 20.21 51.13 47.65 68.09 81.57 16.41 32.81 27.69 72.65 33.52 118.42l0.1 1c9.32 119.51 0.32 283.71-95.45 387.23C755.77 918.74 671 951.24 563 951.24h-0.52c-23.45-0.59-59.62-0.59-107.5 0zM518 909.84c18.15 0 33.27 0.15 45.25 0.45 50.49 0 95.42-7.82 133.56-23.18 34.28-13.8 63.95-34.09 88.19-60.3 47.27-51.1 100.32-154.3 84.72-355.73-5.26-41-15.17-76.21-29.45-104.77-13.94-27.88-32.56-50.31-55.27-66.58-25.92-18.56-58.51-30.13-96.85-34.4-39.7-4.42-86.76-1.17-139.87 9.65-8 1.92-18.5 2.15-33.69 0.73a70 70 0 0 1-26.22-0.73c-53.12-10.82-100.18-14.07-139.88-9.65-38.34 4.26-70.93 15.84-96.85 34.4-22.76 16.3-41.38 38.7-55.33 66.58-14.29 28.56-24.2 63.81-29.45 104.77-3.8 49.11-2.73 96.45 3.17 140.73 6.89 51.73 20.3 97.9 39.85 137.23 47.26 95.07 130 149.31 245.83 161.24 23.58-0.28 44.41-0.44 62.29-0.44z" fill="" /><path d="M516.59 388.26c-36.82 0-73.57-14.47-109.24-43a22.53 22.53 0 1 1 28.15-35.18c55.32 44.27 106.86 44.27 162.18 0a22.53 22.53 0 1 1 28.15 35.18c-35.66 28.53-72.42 43-109.24 43z" fill="" /><path d="M518.28 363.59a22.55 22.55 0 0 1-21.66-28.77c32.47-112.64 71.48-185.13 119.27-221.62a22.53 22.53 0 1 1 27.35 35.8c-39.27 30-74 96.71-103.32 198.29a22.54 22.54 0 0 1-21.64 16.3z" fill="" /><path d="M412.75 277.52q87.12 0 157.75-78.84-70.63-78.84-157.75-78.84T255 198.68q70.62 78.84 157.75 78.84z" fill="#89D66D" /><path d="M416.86 298c-63.88 0-122.09-28.82-173-85.66l-12.24-13.67L243.85 185c50.92-56.84 109.12-85.65 173-85.65s122.09 28.82 173 85.65l12.24 13.67-12.24 13.67C538.95 269.18 480.74 298 416.86 298z m-129.48-99.32c17.84 17.55 36.49 31.25 55.63 40.81a164.13 164.13 0 0 0 147.69 0c19.14-9.57 37.79-23.26 55.63-40.81-17.84-17.55-36.49-31.25-55.63-40.81a164.13 164.13 0 0 0-147.69 0c-19.13 9.56-37.79 23.25-55.63 40.81z" fill="" /><path d="M396.72 182.16h143.35a15.36 15.36 0 0 1 15.36 15.36 15.36 15.36 0 0 1-15.36 15.36H396.72a15.36 15.36 0 0 1-15.36-15.36 15.36 15.36 0 0 1 15.36-15.36z" fill="#015200" /></svg>