<?xml version="1.0" ?>
<!DOCTYPE svg  PUBLIC '-//W3C//DTD SVG 1.1//EN'  'http://www.w3.org/Graphics/SVG/1.1/DTD/svg11.dtd'>
<!-- Uploaded to: SVG Repo, www.svgrepo.com, Generator: SVG Repo Mixer Tools -->
<svg fill="#000000" width="800px" height="800px" viewBox="0 0 64 64" style="fill-rule:evenodd;clip-rule:evenodd;stroke-linejoin:round;stroke-miterlimit:2;" version="1.1" xml:space="preserve" xmlns="http://www.w3.org/2000/svg" xmlns:serif="http://www.serif.com/" xmlns:xlink="http://www.w3.org/1999/xlink">
<g transform="matrix(1,0,0,1,-288,-192)">
<g id="Icon">
<path d="M325.646,202.297C325.504,202.528 325.461,202.806 325.528,203.069C325.595,203.332 325.765,203.556 326.001,203.69L330.075,206.022C330.545,206.292 331.145,206.137 331.426,205.674L335.602,198.808C335.887,198.338 335.74,197.726 335.273,197.437L331.326,195.001C330.856,194.711 330.24,194.856 329.95,195.326L325.646,202.297Z" style="fill:rgb(99,48,1);"/>
<path d="M329.892,195.42L333.159,197.437C333.626,197.726 333.773,198.338 333.488,198.808L329.352,205.609L330.075,206.022C330.545,206.292 331.145,206.137 331.426,205.674L335.602,198.808C335.887,198.338 335.74,197.726 335.273,197.437L331.326,195.001C330.856,194.711 330.24,194.856 329.95,195.326L329.892,195.42Z" style="fill:rgb(74,36,1);"/>
<path d="M323.939,203.763C324.219,203.719 324.469,203.557 324.624,203.315C324.72,203.165 324.772,202.996 324.78,202.824L324.78,202.821C324.788,202.663 324.757,202.504 324.689,202.356C323.011,198.734 319.471,196.437 315.22,196.437C309.397,196.437 304.67,201.164 304.67,206.988C304.67,209.73 305.718,212.23 307.437,214.107C307.626,214.314 307.894,214.432 308.174,214.432L318.299,214.432C318.645,214.432 318.965,214.254 319.148,213.961C319.331,213.668 319.349,213.302 319.197,212.992C318.776,212.134 318.54,211.168 318.54,210.148C318.54,206.939 320.88,204.272 323.945,203.763L323.939,203.763Z" style="fill:rgb(245,240,229);"/>
<path d="M307.392,199.917C309.263,198.226 311.743,197.196 314.462,197.196C318.712,197.196 322.252,199.493 323.93,203.115C323.999,203.262 324.029,203.422 324.021,203.58L324.021,203.583C324.019,203.64 324.011,203.696 323.999,203.752C324.254,203.695 324.48,203.54 324.624,203.315C324.72,203.165 324.772,202.996 324.78,202.824L324.78,202.821C324.788,202.663 324.757,202.504 324.689,202.356C323.011,198.734 319.471,196.437 315.22,196.437C312.116,196.437 309.323,197.78 307.392,199.917Z" style="fill:rgb(234,222,199);"/>
<path d="M317.402,213.873C317.57,214.215 317.918,214.432 318.299,214.432L331.728,214.432C332.102,214.432 332.445,214.223 332.616,213.891C332.616,213.891 333.487,212.214 333.487,210.148C333.487,205.472 329.69,201.675 325.014,201.675C320.337,201.675 316.54,205.472 316.54,210.148C316.54,211.484 316.85,212.749 317.402,213.873Z" style="fill:rgb(245,240,229);"/>
<path d="M317.609,206.028C319.159,204.326 321.393,203.256 323.876,203.256C328.552,203.256 332.349,207.053 332.349,211.729C332.349,212.784 332.122,213.737 331.9,214.417C332.205,214.364 332.472,214.171 332.616,213.891C332.616,213.891 333.487,212.214 333.487,210.148C333.487,205.472 329.69,201.675 325.014,201.675C321.832,201.675 319.058,203.432 317.609,206.028Z" style="fill:rgb(234,222,199);"/>
<path d="M319.047,252.302C319.179,252.718 319.564,253 320,253C320.436,253 320.821,252.718 320.953,252.302L333.191,213.735C333.288,213.431 333.233,213.099 333.045,212.842C332.857,212.584 332.557,212.432 332.238,212.432L307.762,212.432C307.443,212.432 307.143,212.584 306.955,212.842C306.767,213.099 306.712,213.431 306.809,213.735L319.047,252.302Z" style="fill:rgb(248,172,58);"/>
<path d="M332.238,212.432L328.963,212.432C329.282,212.432 329.581,212.584 329.77,212.842C329.958,213.099 330.012,213.431 329.916,213.735L318.362,250.146L319.047,252.302C319.179,252.718 319.564,253 320,253C320.436,253 320.821,252.718 320.953,252.302L333.191,213.735C333.288,213.431 333.233,213.099 333.045,212.842C332.857,212.584 332.557,212.432 332.238,212.432Z" style="fill:rgb(243,148,4);"/>
<path d="M314.162,236.907L320.749,231.631L320.752,231.576L309.055,220.814L314.162,236.907Z" style="fill:rgb(99,48,1);"/>
<path d="M330.945,220.814L313.967,236.293L319.047,252.302C319.179,252.718 319.564,253 320,253C320.436,253 320.821,252.718 320.953,252.302L330.945,220.814Z" style="fill:rgb(99,48,1);"/>
<path d="M330.945,220.814L326.336,225.016L318.362,250.146L319.047,252.302C319.179,252.718 319.564,253 320,253L320.02,253C320.448,252.991 320.823,252.711 320.953,252.302L330.945,220.814Z" style="fill:rgb(74,36,1);"/>
<g transform="matrix(0.713203,-0.199415,-0.199415,0.861343,132.179,90.8999)">
<path d="M308.67,209.231L310.935,210.806C311.724,211.355 312.62,211.432 312.935,210.979C313.25,210.526 312.865,209.713 312.077,209.164L309.812,207.589C309.023,207.041 308.127,206.964 307.812,207.417C307.497,207.87 307.881,208.683 308.67,209.231Z" style="fill:rgb(99,48,1);"/>
</g>
<g transform="matrix(0.799324,0.236548,0.236548,0.721168,14.3352,-16.8977)">
<path d="M311.43,202.028L309.878,203.857C309.192,204.666 308.977,205.612 309.398,205.969C309.819,206.326 310.717,205.96 311.403,205.151L312.955,203.322C313.641,202.513 313.856,201.567 313.436,201.21C313.015,200.853 312.116,201.219 311.43,202.028Z" style="fill:rgb(99,48,1);"/>
</g>
<g transform="matrix(1,0,0,1,0.817388,0.775913)">
<path d="M316.241,203.16L317.169,201.485C317.437,201.002 317.262,200.393 316.779,200.125C316.297,199.858 315.687,200.033 315.42,200.515L314.492,202.19C314.224,202.673 314.399,203.282 314.882,203.55C315.364,203.817 315.974,203.642 316.241,203.16Z" style="fill:rgb(99,48,1);"/>
</g>
<g transform="matrix(0.663289,0.292621,0.292621,0.745695,47.2201,-41.3528)">
<path d="M322.026,211.755L323.194,210.74C324.212,209.855 324.745,208.798 324.383,208.381C324.021,207.965 322.9,208.345 321.882,209.231L320.714,210.245C319.696,211.13 319.163,212.187 319.525,212.604C319.887,213.02 321.008,212.64 322.026,211.755Z" style="fill:rgb(99,48,1);"/>
</g>
<g transform="matrix(1,0,0,0.723847,0.516794,57.6965)">
<path d="M324,205.435L324,206.562C324,207.325 324.448,207.944 325,207.944C325.552,207.944 326,207.325 326,206.562L326,205.435C326,204.672 325.552,204.053 325,204.053C324.448,204.053 324,204.672 324,205.435Z" style="fill:rgb(99,48,1);"/>
</g>
<g transform="matrix(0.660593,-0.750744,0.750744,0.660593,-44.2289,318.649)">
<path d="M327.571,206.98L326.841,208.076C326.535,208.536 326.66,209.157 327.119,209.463C327.579,209.769 328.2,209.644 328.506,209.185L329.236,208.089C329.542,207.629 329.417,207.008 328.958,206.702C328.498,206.396 327.877,206.521 327.571,206.98Z" style="fill:rgb(99,48,1);"/>
</g>
</g>
</g>
</svg>