<?xml version="1.0" encoding="utf-8"?>
<!-- Uploaded to: SVG Repo, www.svgrepo.com, Generator: SVG Repo Mixer Tools -->
<!DOCTYPE svg PUBLIC "-//W3C//DTD SVG 1.1//EN" "http://www.w3.org/Graphics/SVG/1.1/DTD/svg11.dtd">
<svg xmlns="http://www.w3.org/2000/svg" xmlns:xlink="http://www.w3.org/1999/xlink" version="1.1" id="Layer_1"  width="512" height="512" viewBox="0 0 512 512" enable-background="new 0 0 512 512" xml:space="preserve">
<g id="breaded_chicken">
	<path fill="#CBD0D8" d="M511.995,120.002c0,23.562-114.607,42.671-255.995,42.671c-141.372,0-255.995-19.109-255.995-42.671   S114.628,77.331,256,77.331C397.388,77.331,511.995,96.44,511.995,120.002z"/>
	<g>
		<g>
			<path fill="#7F4545" d="M206.017,60.363c-35.75,35.749-59.999,112.607-27.562,145.06c32.453,32.452,109.31,8.203,145.06-27.546     c35.749-35.765,38.437-91.045,5.984-123.498C297.046,21.942,241.766,24.614,206.017,60.363z"/>
		</g>
	</g>
	<path fill="#E5E8EC" d="M32.926,97.315c-4.422,2.172-9.516,2.875-14.516,1.828c-3.094-0.641-5.968-1.906-8.531-3.75   C-0.229,88.159-2.542,74.05,4.692,63.957c2.5-3.484,5.875-6.094,9.671-7.672c0.266-4.062,1.625-8.078,4.172-11.625   c5.188-7.234,14.172-10.734,22.906-8.922c3.078,0.641,5.953,1.906,8.531,3.75c6.953,5,10.234,13.25,9.203,21.203l59.28,42.515   L92.19,139.83L32.926,97.315z"/>
	<g>
		<path fill="#965353" d="M224.985,105.097c-41.093-29.468-120.873-40.921-147.622-3.625    c-26.734,37.296,9.688,109.186,50.765,138.653c41.093,29.469,96.076,23.125,122.826-14.156    C277.687,188.673,266.062,134.549,224.985,105.097z"/>
	</g>
	<path fill="#E5E8EC" d="M378.388,100.394l47.406-59.812c-0.953-2.125-1.594-4.422-1.859-6.797c-0.719-6.141,1-12.187,4.844-17.015   c4.406-5.578,11.016-8.765,18.125-8.765c5.187,0,10.28,1.781,14.358,5c3.5,2.781,6.078,6.453,7.5,10.594   c4.359,0.453,8.562,2.14,12.015,4.875c9.984,7.922,11.672,22.484,3.75,32.484c-4.406,5.562-11.015,8.75-18.124,8.75l0,0   c-1.469,0-2.938-0.141-4.375-0.406l-47.421,59.811L378.388,100.394z"/>
	<g>
		<path fill="#A85D5D" d="M407.356,241.406c32.953-41.577,48.968-124.623,11.234-154.528    c-37.734-29.905-114.936,4.641-147.889,46.218c-32.952,41.578-29.077,99.529,8.656,129.436    C317.108,292.437,374.403,282.983,407.356,241.406z"/>
	</g>
	<g>
		<path fill="#ED5564" d="M256,162.674c-136.123,0-247.433-17.719-255.511-40.062l63.515,349.384    c0,17.672,85.967,31.999,191.996,31.999c106.045,0,191.996-14.327,191.996-31.999l63.53-349.384    C503.433,144.955,392.138,162.674,256,162.674z"/>
	</g>
	<g opacity="0.2">
		<path fill="#FFFFFF" d="M487.339,138.299l-60.67,333.697c0,17.078-80.265,31.03-181.325,31.952    c3.531,0.031,7.078,0.047,10.656,0.047c106.045,0,191.996-14.327,191.996-31.999l63.53-349.384    C509.511,128.189,501.042,133.486,487.339,138.299z"/>
		<path fill="#FFFFFF" d="M234.672,162.674c3.578,0,7.125-0.016,10.671-0.047c-131.247-0.891-236.995-18.25-244.854-40.015    l2.844,15.687C44.426,152.705,132.565,162.674,234.672,162.674z"/>
	</g>
	<path fill="#E5E8EC" d="M115.706,493.839c23.797,4.234,54.421,7.406,88.967,9l-10.781-341.431   c-43.108-1.797-81.904-5.406-113.263-10.328L115.706,493.839z"/>
	<path fill="#E5E8EC" d="M303.343,503.011c34.234-1.438,64.796-4.422,88.92-8.469l35.703-342.931   c-31.562,4.766-70.312,8.25-113.232,9.922L303.343,503.011z"/>
	<path fill="#E5E8EC" d="M254.047,375.998c-52.062,0-96.045-24.422-96.045-53.328c0-28.921,43.983-53.342,96.045-53.342   s96.029,24.421,96.029,53.342C350.076,351.576,306.108,375.998,254.047,375.998z"/>
	<path fill="#ED5564" d="M254.047,258.672c-58.937,0-106.701,28.64-106.701,63.998c0,35.344,47.765,64,106.701,64   c58.921,0,106.701-28.656,106.701-64C360.748,287.312,312.968,258.672,254.047,258.672z M318.515,349.623   c-16.641,9.984-40.141,15.703-64.468,15.703c-24.343,0-47.843-5.719-64.483-15.703c-13.281-7.969-20.891-17.781-20.891-26.953   c0-9.171,7.609-18.999,20.891-26.968c16.64-9.984,40.14-15.702,64.483-15.702c24.327,0,47.827,5.718,64.468,15.702   c13.281,7.969,20.906,17.797,20.906,26.968C339.421,331.842,331.796,341.654,318.515,349.623z"/>
	<path fill="#424953" d="M307.343,322.67c0-5.89-4.781-10.671-10.672-10.671h-0.016h-85.311c0,0,0,0-0.016,0   c-5.875,0-10.656,4.781-10.656,10.671c0,5.891,4.781,10.656,10.656,10.656h0.016l0,0h85.326l0,0   C302.562,333.326,307.343,328.561,307.343,322.67z"/>
</g>
</svg>