<?xml version="1.0" encoding="utf-8"?>
<!-- Uploaded to: SVG Repo, www.svgrepo.com, Generator: SVG Repo Mixer Tools -->
<svg width="800px" height="800px" viewBox="0 0 1024 1024" class="icon"  version="1.1" xmlns="http://www.w3.org/2000/svg"><path d="M364.91 202.73h315.5l169.02 202.73v518.1H195.89v-518.1l169.02-202.73z" fill="#FFFFFF" /><path d="M473.83 204.81h204.8l174.08 204.81v512.01H299.76V409.62l174.07-204.81z" fill="#D0E0FF" /><path d="M665.27 202.73l169.02 202.73v518.1H590.27v-518.1l75-202.73z" fill="#70A6FF" /><path d="M504.55 399.37h358.4v30.72h-358.4z" fill="" /><path d="M873.19 942.12H176.88v-540L362 184.33h326.1l185.09 217.76z m-655.35-41h614.39v-484L669.16 225.29H380.91L217.84 417.14z" fill="" /><path d="M412.4 112.64h266.24v92.16H412.4z" fill="#CFD5FF" /><path d="M699.11 225.29H330.48V92.17h368.63z m-327.68-41h286.72v-51.2H371.44z" fill="" /><path d="M484.07 798.75a20.48 20.48 0 0 1-20.48-20.48V403.38a20.48 20.48 0 0 1 5.08-13.5l174.08-198.57a20.48 20.48 0 1 1 30.8 27l-169 192.77v367.19a20.48 20.48 0 0 1-20.48 20.48zM484.07 829.47A20.48 20.48 0 0 1 504.55 850v71.68a20.48 20.48 0 0 1-20.48 20.48 20.48 20.48 0 0 1-20.48-20.48V850a20.48 20.48 0 0 1 20.48-20.53z" fill="" /><path d="M197.36 399.37H463.6v30.72H197.36z" fill="" /><path d="M364.85 347.6c-11.91 0-21.79-4.12-28.39-12-8.21-9.78-9.83-23.57-4.57-38.83 4.64-13.46 14.31-26.84 27.24-37.69s27.79-18 41.84-20.28c15.94-2.53 29.24 1.46 37.45 11.24 8.21 9.78 9.83 23.57 4.57 38.83-4.64 13.46-14.31 26.84-27.24 37.69s-27.79 18-41.84 20.28a57.81 57.81 0 0 1-9.06 0.76z m45.06-89a36.61 36.61 0 0 0-5.71 0.48c-10.29 1.64-21.92 7.37-31.89 15.74s-17.64 18.82-21 28.67c-2.79 8.08-2.46 15 0.89 19s10.11 5.52 18.55 4.18c10.29-1.63 21.92-7.37 31.89-15.74s17.64-18.82 21-28.67c2.79-8.08 2.46-15-0.89-19-2.56-3.09-7.1-4.69-12.84-4.69z" fill="" /><path d="M387.52 370.07c-11.65 0-21.8-3.9-28.54-11.93-0.44-0.49-2.51-2.46-4.33-4.2-3.21-3.07-7.6-7.26-12-11.82l14.65-14.31c4.2 4.3 8.45 8.36 11.55 11.32 3.36 3.21 4.89 4.68 5.86 5.84 7.16 8.53 29.65 5.88 50.46-11.58 10-8.37 17.65-18.82 21.05-28.67 2.77-8 2.47-14.9-0.82-18.9-0.46-0.48-2-1.87-3.18-3a187.49 187.49 0 0 1-17.7-18l15.82-13a167.69 167.69 0 0 0 15.75 16 58.29 58.29 0 0 1 4.94 4.81c8.21 9.78 9.83 23.57 4.56 38.83-4.64 13.45-14.32 26.84-27.25 37.68-16.51 13.75-35.04 20.93-50.82 20.93z" fill="" /></svg>